<svg width="371" height="364" viewBox="0 0 371 364" version="1.1" xmlns="http://www.w3.org/2000/svg" xmlns:xlink="http://www.w3.org/1999/xlink">
<title>A</title>
<desc>Created using Figma</desc>
<g id="Canvas" transform="translate(365 -1041)">
<g id="A" filter="url(#filter0_d)">
<g id="Page 1">
<g id="Om">
<g id="Path 1">
<use xlink:href="#path0_fill" transform="translate(-344 1062)" fill="#FFFFFF"/>
<use xlink:href="#path1_stroke" transform="translate(-344 1062)" fill="#FFFFFF"/>
</g>
</g>
</g>
</g>
</g>
<defs>
<filter id="filter0_d" filterUnits="userSpaceOnUse" x="-365" y="1041" width="371" height="364" color-interpolation-filters="sRGB">
<feFlood flood-opacity="0" result="BackgroundImageFix"/>
<feColorMatrix in="SourceAlpha" type="matrix" values="0 0 0 0 0 0 0 0 0 0 0 0 0 0 0 0 0 0 255 0"/>
<feOffset dx="0" dy="0"/>
<feGaussianBlur stdDeviation="10"/>
<feColorMatrix type="matrix" values="0 0 0 0 1 0 0 0 0 1 0 0 0 0 1 0 0 0 1 0"/>
<feBlend mode="normal" in2="BackgroundImageFix" result="effect1_dropShadow"/>
<feBlend mode="normal" in="SourceGraphic" in2="effect1_dropShadow" result="shape"/>
</filter>
<path id="path0_fill" fill-rule="evenodd" d="M 19.0328 9.74485C 19.0328 9.74485 77.3889 18.0512 91.1237 10.2232C 49.5087 84.4379 21.9841 134.887 34.9852 207.415C 47.9862 279.942 94.6633 278.436 99.7674 278.436C 104.871 278.436 161.383 276.71 161.383 226.209C 161.383 175.708 109.058 169.393 89.6756 191.691C 91.1237 149.328 99.7674 94.1308 129.914 61.7455C 122.091 55.123 91.1237 66.1928 91.1237 66.1928L 116.628 10.123C 116.628 10.123 227.118 19.1017 240.406 6.9976C 217.698 55.582 210.714 47.7683 200.443 64.9291C 179.962 64.9291 289.298 269.125 289.298 269.125C 289.298 269.125 274.755 149.357 271.228 98.381C 267.701 47.4049 235.477 65.4915 235.477 65.4915L 252.858 10.2232C 252.858 10.2232 311.525 6.48832 327.935 -2.04063e-05C 295.925 55.2683 292.381 298.695 305.234 320.544C 318.086 342.392 186.366 91.6809 153.446 82.8445C 112.435 108.31 104.846 129.386 99.7674 169.393C 153.446 102.101 214.621 159.341 214.621 207.415C 214.621 255.489 177.021 297.974 112.435 297.974C 47.8504 297.974 14.0807 233.785 19.0328 153.866C 23.985 73.9466 13.0269 69.7158 1.45703e-06 62.3661C 1.45703e-06 29.3441 19.0328 9.74485 19.0328 9.74485Z"/>
<path id="path1_stroke" d="M 19.0328 9.74485L 19.1033 9.24984L 18.8514 9.21399L 18.6741 9.39652L 19.0328 9.74485ZM 91.1237 10.2232L 91.5598 10.4677L 92.4405 8.89719L 90.8761 9.78879L 91.1237 10.2232ZM 34.9852 207.415L 34.493 207.503L 34.493 207.503L 34.9852 207.415ZM 161.383 226.209L 161.883 226.209L 161.883 226.209L 161.383 226.209ZM 89.6756 191.691L 89.1759 191.674L 89.1277 193.083L 90.053 192.019L 89.6756 191.691ZM 129.914 61.7455L 130.279 62.0862L 130.637 61.7026L 130.237 61.3639L 129.914 61.7455ZM 91.1237 66.1928L 90.6686 65.9858L 90.1793 67.0614L 91.292 66.6637L 91.1237 66.1928ZM 116.628 10.123L 116.668 9.62467L 116.318 9.59621L 116.173 9.916L 116.628 10.123ZM 240.406 6.9976L 240.859 7.20931L 240.07 6.62795L 240.406 6.9976ZM 200.443 64.9291L 200.443 65.4291L 200.727 65.4291L 200.872 65.1859L 200.443 64.9291ZM 289.298 269.125L 288.857 269.361L 289.794 269.064L 289.298 269.125ZM 235.477 65.4915L 235 65.3415L 234.621 66.545L 235.721 65.9275L 235.477 65.4915ZM 252.858 10.2232L 252.826 9.7242L 252.484 9.74599L 252.381 10.0732L 252.858 10.2232ZM 327.935 -2.04063e-05L 328.368 0.250571L 329.088 -0.993684L 327.751 -0.464995L 327.935 -2.04063e-05ZM 153.446 82.8445L 153.576 82.3616L 153.366 82.3054L 153.182 82.4197L 153.446 82.8445ZM 99.7674 169.393L 99.2714 169.33L 99.047 171.098L 100.158 169.705L 99.7674 169.393ZM 214.621 207.415L 215.121 207.415L 215.121 207.415L 214.621 207.415ZM 112.435 297.974L 112.435 298.474L 112.435 298.474L 112.435 297.974ZM 19.0328 153.866L 19.5319 153.897L 19.0328 153.866ZM 1.45703e-06 62.3661L -0.499999 62.3661L -0.499999 62.6581L -0.24569 62.8016L 1.45703e-06 62.3661ZM 19.0328 9.74485C 18.9624 10.2399 18.9626 10.2399 18.9631 10.24C 18.9636 10.24 18.9643 10.2401 18.9652 10.2403C 18.967 10.2405 18.9697 10.2409 18.9733 10.2414C 18.9805 10.2424 18.9912 10.2439 19.0054 10.2459C 19.0336 10.2499 19.0759 10.2559 19.1315 10.2636C 19.2426 10.2791 19.4079 10.3021 19.6238 10.3316C 20.055 10.3906 20.6901 10.4762 21.5024 10.5823C 23.126 10.7943 25.4629 11.0886 28.3082 11.4171C 33.9968 12.0739 41.7324 12.8687 49.8941 13.4184C 58.055 13.9679 66.6648 14.273 74.0869 13.9504C 81.4829 13.6286 87.8203 12.6815 91.3713 10.6576L 90.8761 9.78879C 87.5598 11.6789 81.4521 12.629 74.0434 12.9514C 66.6608 13.273 58.1063 12.9692 49.9613 12.4207C 41.8171 11.8723 34.1053 11.0798 28.4229 10.4237C 25.5828 10.0958 23.2533 9.80238 21.6319 9.59069C 20.8217 9.4849 20.1896 9.3997 19.7593 9.34084C 19.5444 9.31144 19.3804 9.28869 19.2698 9.27325C 19.2146 9.26554 19.173 9.25969 19.145 9.25574C 19.1311 9.25378 19.1206 9.2523 19.1136 9.25131C 19.1101 9.25081 19.1076 9.25045 19.1058 9.2502C 19.1049 9.25008 19.1043 9.24999 19.1039 9.24993C 19.1035 9.24987 19.1033 9.24984 19.0328 9.74485ZM 90.6876 9.97864C 49.0829 84.1749 21.4561 134.776 34.493 207.503L 35.4773 207.327C 22.5121 134.999 49.9345 84.7009 91.5598 10.4677L 90.6876 9.97864ZM 34.493 207.503C 41.0135 243.878 55.9988 261.77 70.073 270.548C 84.1394 279.295 97.2226 278.936 99.7674 278.936L 99.7674 277.936C 97.2081 277.936 84.4007 278.33 70.6022 269.699C 56.8116 261.098 41.9578 243.479 35.4773 207.327L 34.493 207.503ZM 99.7674 278.936C 102.326 278.936 117.837 278.492 132.697 271.715C 147.591 264.913 161.883 251.705 161.883 226.209L 160.883 226.209C 160.883 251.214 146.92 264.12 132.282 270.806C 117.61 277.518 102.312 277.936 99.7674 277.936L 99.7674 278.936ZM 161.883 226.209C 161.883 200.751 148.671 186.35 132.954 181.175C 117.292 176.019 99.143 180.037 89.2982 191.363L 90.053 192.019C 99.5902 181.047 117.295 177.073 132.641 182.125C 147.933 187.16 160.883 201.167 160.883 226.209L 161.883 226.209ZM 90.1753 191.708C 91.6232 149.354 100.269 94.3263 130.279 62.0862L 129.548 61.4049C 99.2662 93.9354 90.6243 149.302 89.1759 191.674L 90.1753 191.708ZM 130.237 61.3639C 128.127 59.5783 124.554 59.0399 120.539 59.1467C 116.502 59.2553 111.85 60.0251 107.477 60.9977C 103.102 61.971 98.9675 63.1531 95.937 64.0889C 94.4202 64.5574 93.1741 64.9658 92.3103 65.2562C 91.8777 65.4016 91.5388 65.5181 91.3093 65.5978C 91.1942 65.6378 91.1057 65.6689 91.0465 65.6897C 91.0168 65.7002 90.994 65.7083 90.9789 65.7137C 90.9713 65.7164 90.9654 65.7185 90.9616 65.7198C 90.9596 65.7205 90.9581 65.7211 90.9571 65.7214C 90.9566 65.7216 90.9561 65.7218 90.9559 65.7219C 90.9556 65.722 90.9554 65.722 91.1237 66.1928C 91.292 66.6637 91.2921 66.6637 91.2923 66.6636C 91.2925 66.6635 91.2928 66.6634 91.2932 66.6633C 91.2941 66.6629 91.2954 66.6625 91.2972 66.6618C 91.3008 66.6605 91.3062 66.6586 91.3135 66.656C 91.3282 66.6508 91.35 66.6431 91.3791 66.6328C 91.4375 66.6122 91.5239 66.5819 91.6375 66.5425C 91.8654 66.4633 92.1995 66.3484 92.6289 66.2041C 93.4892 65.9149 94.7235 65.5103 96.2321 65.0444C 99.2525 64.1116 103.348 62.9402 107.694 61.9738C 112.04 61.0068 116.597 60.2508 120.566 60.1464C 124.558 60.0402 127.788 60.6015 129.59 62.1271L 130.237 61.3639ZM 91.5788 66.3999L 117.083 10.33L 116.173 9.916L 90.6686 65.9858L 91.5788 66.3999ZM 116.628 10.123C 116.587 10.6214 116.588 10.6214 116.589 10.6215C 116.59 10.6216 116.591 10.6217 116.593 10.6218C 116.596 10.6221 116.601 10.6225 116.608 10.623C 116.621 10.6241 116.641 10.6257 116.668 10.6279C 116.721 10.6322 116.801 10.6385 116.906 10.6468C 117.115 10.6635 117.427 10.688 117.834 10.7194C 118.646 10.7823 119.841 10.8729 121.365 10.9839C 124.413 11.2058 128.784 11.5094 134.069 11.8359C 144.637 12.4886 158.873 13.2331 173.521 13.5992C 188.17 13.9651 203.25 13.9524 215.495 13.0911C 221.62 12.6599 227.061 12.0133 231.376 11.0962C 235.674 10.1824 238.974 8.97871 240.743 7.36724L 240.07 6.62795C 238.517 8.04251 235.457 9.20602 231.168 10.118C 226.898 11.0267 221.526 11.6644 215.425 12.0936C 203.215 12.9531 188.182 12.9652 173.546 12.5995C 158.911 12.2339 144.694 11.4902 134.13 10.8378C 128.849 10.5116 124.484 10.2083 121.438 9.98651C 119.915 9.87563 118.723 9.78517 117.911 9.72239C 117.505 9.69102 117.194 9.66659 116.985 9.64998C 116.88 9.64168 116.801 9.63536 116.748 9.63109C 116.722 9.62896 116.702 9.62736 116.688 9.62628C 116.682 9.62574 116.677 9.62534 116.673 9.62507C 116.672 9.62493 116.671 9.62483 116.67 9.62477C 116.669 9.6247 116.668 9.62467 116.628 10.123ZM 239.953 6.78588C 228.611 31.0527 221.214 41.1937 215.396 47.4054C 209.611 53.5806 205.184 56.034 200.014 64.6723L 200.872 65.1859C 205.973 56.6633 210.173 54.4432 216.126 48.089C 222.044 41.7712 229.493 31.5269 240.859 7.20931L 239.953 6.78588ZM 200.443 64.4291C 199.69 64.4291 199.045 64.6682 198.546 65.158C 198.058 65.6363 197.752 66.3126 197.577 67.1164C 197.231 68.7133 197.372 70.9885 197.889 73.7938C 198.926 79.4094 201.53 87.4301 205.22 97.0143C 212.596 116.172 224.351 141.716 236.74 167.245C 249.129 192.774 262.159 218.304 272.09 237.449C 277.056 247.022 281.248 255 284.198 260.584C 285.673 263.376 286.837 265.57 287.633 267.066C 288.031 267.814 288.337 268.388 288.544 268.774C 288.647 268.968 288.725 269.114 288.778 269.212C 288.804 269.261 288.824 269.299 288.837 269.323C 288.844 269.336 288.849 269.345 288.852 269.351C 288.854 269.354 288.855 269.357 288.856 269.358C 288.856 269.36 288.857 269.361 289.298 269.125C 289.738 268.889 289.738 268.888 289.737 268.886C 289.736 268.885 289.735 268.882 289.734 268.879C 289.73 268.873 289.725 268.864 289.719 268.852C 289.705 268.827 289.686 268.79 289.659 268.741C 289.607 268.643 289.529 268.496 289.426 268.303C 289.22 267.917 288.914 267.344 288.516 266.597C 287.72 265.101 286.556 262.908 285.082 260.117C 282.132 254.534 277.942 246.559 272.978 236.989C 263.048 217.847 250.025 192.328 237.64 166.809C 225.255 141.289 213.517 115.784 206.153 96.655C 202.472 87.0959 199.895 79.1638 198.873 73.6125C 198.36 70.8343 198.252 68.7225 198.555 67.3283C 198.705 66.6365 198.946 66.1662 199.246 65.8718C 199.535 65.5888 199.916 65.4291 200.443 65.4291L 200.443 64.4291ZM 289.298 269.125C 289.794 269.064 289.794 269.064 289.794 269.063C 289.794 269.062 289.794 269.061 289.793 269.059C 289.793 269.055 289.792 269.05 289.791 269.043C 289.79 269.028 289.787 269.006 289.783 268.977C 289.776 268.92 289.766 268.833 289.752 268.719C 289.725 268.491 289.684 268.152 289.63 267.707C 289.523 266.818 289.365 265.506 289.162 263.819C 288.758 260.445 288.176 255.568 287.467 249.556C 286.048 237.532 284.12 220.969 282.082 202.813C 278.006 166.501 273.49 123.826 271.727 98.3465L 270.729 98.4155C 272.493 123.913 277.012 166.609 281.088 202.925C 283.127 221.083 285.055 237.648 286.474 249.673C 287.183 255.686 287.765 260.564 288.169 263.938C 288.372 265.626 288.53 266.937 288.637 267.827C 288.691 268.272 288.732 268.611 288.759 268.84C 288.773 268.954 288.784 269.04 288.791 269.098C 288.794 269.127 288.797 269.148 288.799 269.163C 288.8 269.17 288.8 269.176 288.801 269.179C 288.801 269.181 288.801 269.183 288.801 269.183C 288.801 269.184 288.801 269.185 289.298 269.125ZM 271.727 98.3465C 270.842 85.5554 268.154 77.0355 264.575 71.4662C 260.986 65.8814 256.514 63.285 252.136 62.3317C 247.795 61.3952 243.533 62.0751 240.427 62.982C 238.866 63.4388 237.562 63.9582 236.665 64.3571C 236.213 64.5581 235.854 64.733 235.614 64.8548C 235.492 64.9165 235.396 64.9668 235.333 65.0003C 235.301 65.0174 235.276 65.0312 235.26 65.0401C 235.251 65.0448 235.244 65.0486 235.24 65.051C 235.238 65.0523 235.236 65.0534 235.235 65.0541C 235.234 65.0544 235.233 65.0548 235.233 65.055C 235.232 65.0553 235.232 65.0555 235.477 65.4915C 235.721 65.9275 235.721 65.9276 235.721 65.9276C 235.721 65.9275 235.722 65.9275 235.722 65.9273C 235.723 65.9268 235.724 65.9263 235.725 65.9254C 235.729 65.9235 235.733 65.9209 235.74 65.917C 235.755 65.9089 235.776 65.8976 235.805 65.8821C 235.865 65.8502 235.95 65.8051 236.065 65.7468C 236.299 65.6286 236.635 65.4647 237.071 65.2707C 237.951 64.8796 239.192 64.3842 240.707 63.9419C 243.753 63.0506 247.768 62.3948 251.924 63.3088C 256.043 64.2058 260.288 66.6457 263.734 72.0068C 267.189 77.3833 269.851 85.7186 270.729 98.4155L 271.727 98.3465ZM 235.954 65.6415L 253.335 10.3732L 252.381 10.0732L 235 65.3415L 235.954 65.6415ZM 252.858 10.2232C 252.89 10.7222 252.89 10.7222 252.89 10.7221C 252.891 10.7221 252.891 10.7221 252.892 10.722C 252.894 10.7219 252.897 10.7217 252.9 10.7215C 252.908 10.721 252.918 10.7203 252.933 10.7194C 252.961 10.7176 253.003 10.7149 253.059 10.7112C 253.171 10.7039 253.337 10.693 253.554 10.6785C 253.988 10.6496 254.627 10.6062 255.446 10.5488C 257.083 10.434 259.44 10.2626 262.32 10.0367C 268.078 9.58504 275.931 8.91486 284.295 8.04201C 292.658 7.16918 301.543 6.09227 309.361 4.82821C 317.181 3.56343 323.978 2.10059 328.119 0.464954L 327.751 -0.464995C 323.688 1.14354 316.996 2.58069 309.201 3.84104C 301.403 5.10212 292.546 6.17548 284.191 7.04741C 275.836 7.91932 267.997 8.58838 262.242 9.03976C 259.365 9.26542 257.011 9.4365 255.376 9.55126C 254.558 9.60862 253.921 9.65185 253.487 9.68077C 253.271 9.69522 253.106 9.70607 252.994 9.71333C 252.939 9.71696 252.897 9.71967 252.868 9.72149C 252.854 9.72239 252.844 9.72307 252.837 9.72352C 252.833 9.72375 252.83 9.72392 252.829 9.72403C 252.828 9.72409 252.827 9.72413 252.827 9.72416C 252.826 9.72418 252.826 9.7242 252.858 10.2232ZM 327.502 -0.250612C 319.447 13.6583 313.214 39.3236 308.582 70.2547C 303.947 101.206 300.902 137.523 299.262 172.781C 297.621 208.039 297.382 242.263 298.358 269.031C 298.846 282.418 299.638 293.956 300.71 302.824C 301.247 307.261 301.856 311.048 302.531 314.06C 303.206 317.066 303.958 319.361 304.803 320.797L 305.665 320.29C 304.903 318.995 304.177 316.828 303.507 313.841C 302.838 310.859 302.237 307.122 301.703 302.704C 300.634 293.862 299.844 282.366 299.357 268.995C 298.382 242.249 298.621 208.066 300.261 172.827C 301.9 137.588 304.94 101.321 309.571 70.4028C 314.204 39.4644 320.418 13.9758 328.368 0.250571L 327.502 -0.250612ZM 304.803 320.797C 305.208 321.486 305.485 321.927 305.625 322.112C 305.65 322.146 305.718 322.235 305.807 322.298C 305.84 322.319 305.924 322.359 305.979 322.377C 306.073 322.392 306.287 322.359 306.399 322.298C 306.484 322.223 306.58 322.065 306.601 321.993C 306.609 321.947 306.614 321.872 306.612 321.84C 306.606 321.743 306.573 321.648 306.557 321.603C 306.537 321.543 306.506 321.464 306.47 321.379C 306.197 320.727 305.417 319.133 304.197 316.738C 301.76 311.954 297.538 303.913 292.009 293.626C 280.952 273.054 264.659 243.48 246.937 212.95C 229.215 182.42 210.055 150.919 193.27 126.502C 184.876 114.291 177.062 103.835 170.322 96.1613C 166.949 92.3213 163.825 89.1586 161.038 86.8266C 158.25 84.4956 155.739 82.9423 153.576 82.3616L 153.316 83.3274C 155.268 83.8512 157.644 85.2921 160.396 87.5937C 163.148 89.8944 166.217 93.0029 169.571 96.8212C 176.286 104.465 184.063 114.874 192.446 127.069C 209.216 151.462 228.355 182.931 246.072 213.452C 263.788 243.973 280.073 273.532 291.128 294.1C 296.655 304.383 300.872 312.413 303.306 317.192C 304.523 319.58 305.287 321.14 305.548 321.765C 305.579 321.839 305.599 321.89 305.613 321.931C 305.632 321.986 305.618 321.961 305.614 321.905C 305.614 321.882 305.618 321.816 305.625 321.776C 305.644 321.711 305.738 321.557 305.819 321.484C 305.927 321.426 306.138 321.394 306.225 321.407C 306.276 321.423 306.353 321.46 306.378 321.476C 306.437 321.517 306.458 321.556 306.42 321.506C 306.307 321.358 306.063 320.967 305.665 320.29L 304.803 320.797ZM 153.182 82.4197C 132.637 95.1771 120.412 106.867 112.698 120.418C 105.006 133.942 101.813 149.307 99.2714 169.33L 100.263 169.456C 102.8 149.472 105.941 134.295 113.567 120.913C 121.169 107.559 133.244 95.9773 153.71 83.2692L 153.182 82.4197ZM 100.158 169.705C 113.528 152.944 127.329 143.982 140.481 140.67C 153.658 137.339 166.155 139.659 177.086 145.581C 198.927 157.401 214.121 183.56 214.121 207.415L 215.121 207.415C 215.121 183.196 199.728 156.698 177.562 144.702C 166.488 138.716 153.627 136.339 140.237 139.7C 126.821 143.078 112.846 152.196 99.3765 169.081L 100.158 169.705ZM 214.121 207.415C 214.121 255.189 176.768 297.474 112.435 297.474L 112.435 298.474C 177.273 298.474 215.121 255.788 215.121 207.415L 214.121 207.415ZM 112.435 297.474C 80.3373 297.474 55.9012 281.535 40.0845 255.629C 24.2563 229.704 17.0601 193.787 19.5319 153.897L 18.5338 153.835C 16.0534 193.864 23.266 230.001 39.231 256.15C 55.2073 282.318 79.9486 298.474 112.435 298.474L 112.435 297.474ZM 19.5319 153.897C 22.0079 113.938 20.515 92.8163 16.7357 80.7529C 14.8403 74.7029 12.3643 70.9108 9.51284 68.1648C 6.67674 65.4406 3.49584 63.7644 0.245693 61.9307L -0.24569 62.8016C 3.01762 64.6427 6.09158 66.2515 8.81918 68.8851C 11.5314 71.497 13.928 75.1356 15.7814 81.0519C 19.4999 92.9211 21.0099 113.875 18.5338 153.835L 19.5319 153.897ZM 0.500001 62.3661C 0.492492 45.9415 5.21555 32.9019 9.95874 23.9054C 12.3238 19.4165 14.6804 15.9688 16.4574 13.6253C 17.3427 12.4574 18.0758 11.5755 18.5928 10.979C 18.8498 10.6825 19.0494 10.4613 19.1872 10.3114C 19.2553 10.2373 19.3063 10.1828 19.3416 10.1456C 19.3588 10.1274 19.3713 10.1143 19.38 10.1051C 19.3842 10.1008 19.3871 10.0978 19.3892 10.0956C 19.3902 10.0946 19.3908 10.094 19.3912 10.0935C 19.3914 10.0933 19.3915 10.0932 19.3916 10.0931C 19.3916 10.0931 19.3915 10.0932 19.0328 9.74485C 18.6741 9.39652 18.6739 9.39674 18.6736 9.39704C 18.6734 9.39724 18.6731 9.39761 18.6727 9.39801C 18.672 9.39871 18.6709 9.3999 18.6695 9.40129C 18.667 9.40388 18.663 9.40807 18.658 9.41324C 18.6485 9.42319 18.6337 9.43872 18.6149 9.45859C 18.5781 9.49751 18.5223 9.55709 18.451 9.6346C 18.31 9.78797 18.1007 10.0201 17.8372 10.324C 17.3134 10.9284 16.5595 11.8356 15.6605 13.0211C 13.8689 15.3844 11.4672 18.9004 9.0741 23.4391C 4.30087 32.4977 -0.492489 45.7688 -0.499999 62.3661L 0.500001 62.3661Z"/>
</defs>
</svg>
