<svg id="Layer_1" data-name="Layer 1" xmlns="http://www.w3.org/2000/svg" viewBox="0 0 719.96 1079.75"><defs><style>.cls-1{ fill: rgba(0,0,0,0); }</style></defs><title>Untitled-1</title><path class="cls-1" d="M58,1115.79V36H778V1115.79ZM430.95,321.13c-5.1,12.75-3.51,15.1,4.2,19.63-1-4.35-3.09-8.87-2.52-13s3.83-8,5.92-12L436,313.65l-5.24,7.66c3.57-11.36,13.87-13.36,20.84-7.44-1.87,3.79,2.56,10.17,9.52,13.12l-3.69-9.08c5.28-.13,4.68,3.23,4.76,5.61.1,3.11-.46,6.31,3.11,8.13,2.39-6.14,2.64-6.17,8.34-3.33a24,24,0,0,0,4.93,1.28c-8.06-10.53-3.74-13.75,1.08-18.41-1.77,6.81.79,11.73,6.28,15,1.21.71,3.59-.55,5.44-.91-.78-1.32-1.48-2.7-2.38-3.93a6.65,6.65,0,0,0-1.9-1.22c3.13-3.89,10-2.81,10.77-10.16l-15.12-2.52,6.42-7.06c-8.59-3.55-11.87,4.48-17.89,7.46L487.72,277c.76,1.54,1.12,2.24,1.45,3q8.7,18.76,17.41,37.51c.27.57.83,1.49,1.19,1.46,6-.54,8.92,4.48,13.07,7.27,4,2.69,6.05,1.81,7.8-3.13l-7.05-2.43c9.8-.63,15.22-6.94,12.29-14.71-1.27-3.38-3.38-4.35-6.62-2.72-2.46,1.24-4.9,2.52-8.8,4.52l2.25-10.83-8.64,3c7.38-13.22.1-26,1.44-39.53l-10.14,2.92,4.13-7.55-1.53-1.5-10.17,7.83L494.21,261a37.54,37.54,0,0,1,2.23-5.2,54.1,54.1,0,0,1,4.15-5.22c-4.86-1-7.25,1-8.66,4.29-1,2.28-1.39,4.77-2.16,7.14-1.23,3.8-2.1,7.61-7.71,7.48-1.93,0-4,2.54-5.85,4.14a31.8,31.8,0,0,0-3.3,4c-.26-2,.65-3.74.3-5.14-.59-2.32-1.66-6-3.13-6.27-2.14-.46-4.84,1.44-7.21,2.55-.61.29-.68,1.56-1.27,2.09a33.72,33.72,0,0,1-4.54,3.44c-.21.13-1.72-1-1.65-1.34.48-2,.67-4.67,2-5.76,2.08-1.66,5-2.36,7.65-3.19,1.41-.44,3-.31,5.14-.48-8.17-6-14.52-1.63-16.71,4.14-1.66,4.37-2.76,9-4.16,13.6l-3.85-5.41c-.15,5.66.61,10.71.83,15.77.3,7.1-2.18,10.92-8.36,12.51l3.8-12.29c-1.44,0-2.89-.45-3.59.08-2,1.58-3.58,3.84-5.69,5.28-1.9,1.3-4.29,1.87-6.47,2.76a53,53,0,0,1-2-5.25c-.68-2.55-1.11-5.17-1.65-7.75h-1.68c-.48,1.62-1.71,3.46-1.29,4.81.85,2.78,2.81,5.21,3.85,8,.58,1.52.22,3.4.28,5.12-1.6-.64-4.34-1-4.61-2a59.82,59.82,0,0,1-2.3-13.47c-.13-3.58,1-7.21,1.69-11.76-9.47,5.85-6,16-10.13,23.53-1.59-16.43-2.78-19.09-8.57-19.64,1,12.87-3.49,20.65-12.22,21.1-1.58-5,4.64-10,.5-15.59-3.75,6-8.38,9.07-11.39,7.5-2.74-1.42-4.72-3.54-3.48-7.14l10.09,2.48c.47-4.5-1.19-7-4.51-6.48-3.78.58-7.37,2.48-11,3.8,1.23,3.28,2.35,6.62,3.77,9.82.51,1.15,1.92,1.86,2.63,3a46.94,46.94,0,0,1,2.38,4.81c-12.36.24-16.35,2.47-17.86,9.44,4.26,1.27,8.68,2.18,12.72,3.94,2.87,1.25,6,3.92,3.5,7.42-2.69,3.85-6.45,7-9.75,10.4.74-7.86-1.73-10.49-9.7-9.45l6.92,6.33-4,2.53.39,1.25,6.52-.82-4.87,9.91L361.4,347l7.6-3.19c1.72.45,3.13.76,4.5,1.21s2.93,1.08,4.39,1.63c-.92,1.43-1.51,3.49-2.82,4.19-8,4.3-16.06,3.24-23.78-1-2.88-1.57-6.06-3.47-.93-7.43-2.06.1-3,.25-4,.19-11.08-.71-22.3-.58-33.19-2.43-9.54-1.63-14.34-8.52-14.29-16.66a19.46,19.46,0,0,1,14.81-19c6.71-1.8,13.29.54,12.88,9.52-5.09,1.53-10.75,2.67-11,9.77l9,3.11-.12,1.77c-2.27.76-4.74,1.17-6.75,2.36s-3.76,3.23-5.62,4.89c2,1.25,4.07,3.52,6.11,3.53a74.33,74.33,0,0,0,15.22-1.66c6.26-1.28,9.54-4.57,9.66-12,.16-9.28,3.67-17.89,13.71-21.11,3.4-1.09,3.87-2.76,3.92-5.72.15-8.16.54-16.31.83-24.33H353.9l.62,13c-5.87-4.05-2.34-13.06-11.38-16.08l3.31,11.5c-3.1-2.41-4.72-4.27-6.75-5-1.47-.56-3.49.3-5.26.53.56,1.32.76,3.15,1.75,3.88,2.8,2.05,2.07,3.77.07,5.67-1.2,1.14-2.39,2.31-3.66,3.37-2.89,2.41-4.23,5.76-2.44,8.83.9,1.55,4.3,2,6.65,2.27,3.26.42,6.88-.63,9.29,2.9-9.3,4.8-16.5,2.33-19.77-6.85-1.44-4-2.17-8.35-3.2-12.54-1.7-6.93-3-14-5.23-20.75-1-3-3.79-5.37-5.77-8l-1.56.2c0,14.22-4.17,25.07-22.11,25.54,2.77,1.95,3.88,2.88,5.13,3.57,2.75,1.53,5.72,2.74,8.29,4.53.86.6.77,2.57,1.11,3.91-1.21.2-2.51.77-3.6.49-1.39-.35-2.55-1.54-3.93-2.07-2-.78-4.09-1.29-7.51-2.34,1.33,3.38,2.3,5.14,2.67,7a6.21,6.21,0,0,1-.58,4.16c-.33.54-2.39.34-3.52,0-8.39-2.54-9.17-2-8.94,6.83,0,1.78,0,3.56,0,6.43l9.9-3.93c4.08,7.79-4.48,11.27-5.89,16.85l11.12,4-.28,2.26c-2.42.18-5.27,1.25-7.16.34-4.11-2-7.71-5-11.55-7.53-2-1.31-4.06-2.5-6.1-3.74l-1.23,1.62c2.14,2.43,4.13,5,6.46,7.24,3.89,3.73,7.06,7.54,5.5,13.51a3.9,3.9,0,0,0,1.06,3.4c10,6.83,14.3,17.66,20.12,27.51,2.85,4.82,3.83,8.58,1.3,14.38-5.75,13.19-3.74,17.92,7.61,26.76,3,2.31,6,4.93,8,8.09,3.84,6.31,0,13.18-7.37,13.44-4.13.15-8.28-.63-12.43-.72a61.33,61.33,0,0,0-7.27.67l-.06,1.66c5,2,10,4.11,15.07,5.94,19.25,6.93,38.81,13.1,57.76,20.8,28.28,11.49,42.94,33.49,44.07,63.73.6,16.07-1.3,32.23-1.38,48.35a346.19,346.19,0,0,0,1.66,38.31c1,9,3.67,9.76,11.73,5.38,6.25-3.4,8-6.48,7-12.54-6.23-39-5-78,.54-116.92a8.1,8.1,0,0,1,2.67-4.85c9.47-7.32,19.18-14.33,28.69-21.6,17.2-13.16,36.15-21,58.22-20.07a44.38,44.38,0,0,0,12.34-1.23c2.33-.58,4.24-2.82,6.35-4.31l-.7-1.58H524c-10.59,0-13.54-2.61-11.05-12.81,1.93-7.92,5.91-15.43,9.61-22.81,4.92-9.81,5.15-9.65-2.23-17.59a21.88,21.88,0,0,1-3.35-4.91,4,4,0,0,1-.23-3.25c2.88-5,5.49-10.5,11.42-12.64,2.74-1,2.95-2.55,3.41-5.09,1.09-5.92,2-12.3,4.88-17.38,5.23-9.14,12-17.42,9-28.85,2.72-.7,4.85-.83,6.51-1.78,2.15-1.24,4.7-2.77,5.65-4.84,1.31-2.85,1.31-6.3,1.8-9.51.18-1.21.16-2.45.23-3.68-8.52-.44-12-5.26-10.16-13.11,2.16-9.26,2.68-18.53-.36-29.29-1.73,5.12-2.7,9.3-8.94,9.72L548,249.48c-5.69-1.88-6.88,1.09-7.64,4.86-.63,3.11-.76,6.85-6.81,6.35,1.27-2.78,2.16-5.1,3.35-7.26s3.68-4,0-6.55a40.8,40.8,0,0,1-3.39,5.19c-.74.83-2.13,1.08-3.22,1.59-.32-1.17-1.08-2.44-.86-3.5a64.75,64.75,0,0,1,2.41-7.31c-7.35,0-9.09,6-12.87,9.57,9.23,7.8,11.21,13.84,8.76,25.21a5.23,5.23,0,0,0,1.26,4.21c12.52,11.51,14.45,26,10.41,41.26-3.31,12.49-17.43,14.53-24.45,5.19-1.68-2.23-4.31-3.73-7.25-6.2-1.91,9.3-6.25,14.41-15,15.53-8,1-14.88-1.64-21.57-5.6-3.79,16.8-31.71,21.93-44.84,9a6.76,6.76,0,0,0-1.12,1.62c-4.62,14.67-27.56,17.34-37.83,9-3.13-2.55-6.79-5.25-5.44-10.26a132.38,132.38,0,0,1,4.46-14.73c1.37-3.43,3.12-7.23,5.85-9.48,4.77-3.94,14.33-2.51,19,1.87,6.81,6.4,8.62,14.09,4.92,20.91.82-6.17.62-11.89-5.57-15.65-7.2-4.37-16.1-2.81-19.33,3.9,1.88-.66,3.51-1.31,5.18-1.8,9.43-2.79,11.05-1.86,13.65,7.26.89,3.11,1.49,6.82,6.24,6.14-1.56,2.08-2.19,5.93-7,2.7L408,352.94l1.88.94c2.62-2.11,5.9-3.76,7.71-6.42,3-4.47,5.16-9.57,7.61-14.44C427.15,329.08,429,325.1,430.95,321.13ZM541.61,524.69c-10.62,7.88-22.56,12.1-35.54,13.52-8.72,1-17.27.26-25.41-3.46-3.58-1.63-5-3.72-3.69-7.81,2.78-8.81,8.3-15.51,16.61-18.8a189,189,0,0,1,29.54-8.86c6.54-1.41,11.18-3.43,13.38-10.32,1.51-4.71,4.52-8.94,7.39-14.39-8.15,1-15.08,1.65-22,2.7-31.61,4.82-57,18.54-70.87,49.15-7.84,17.24-12.19,33.73,1.63,50.41,3.23,3.9,4.84,10,5.19,15.26,1.34,19.8-8.16,34.28-24.7,44-9,5.28-18.87,7.5-29,2.05-10.8-5.79-19.32-14-26.29-24-4.56-6.54-5.55-13.65-2.34-20.84,6-13.48,7.38-27.53,6-42-2-20.83-9.55-39.07-25.72-52.92-18.86-16.15-41.53-22.53-65.71-24.66-.37,0-.79.41-1.36.72,3.63,11.33,11.8,18.7,20.86,25.41,8.14,6,16.25,12.12,24.22,18.39,3.93,3.08,6.23,6.66,2.31,11.7-1.45,1.87-1.4,4.83-2.64,6.94-1,1.73-2.77,3.88-4.48,4.16-3.13.52-4.69,2-4.5,4.76.27,3.89-1.93,4.8-4.88,4.43q-9.86-1.23-19.65-3.07c-3.67-.69-7.23-1.92-10.91-2.93-1.93,15,5.64,27.9,20.61,35.34,5.3,2.64,10.87,4.75,16.87,7.34-7.19,7.65-4.38,15.12-.66,22.81,2.67,5.5,4.61,11.36,7.14,16.94a7.34,7.34,0,0,0,3.54,3.6q36.8,14.15,73.74,27.94a10.43,10.43,0,0,0,6.22.28c10.67-3.22,21.27-6.68,31.85-10.16,8.27-2.73,16-6.37,21.93-13.26l-2.18-1.92c10.38-3,20.87-6,31.3-9.17a6.06,6.06,0,0,0,3.47-2.89c3.8-8.79,7.35-17.68,11-26.54.59-1.45,1.2-2.89,2.14-5.15l-12.61-.58-.09-1.57c8.53-1.19,16.58-3.2,22.33-10.31a30.74,30.74,0,0,0,7.11-23.56c-21.35,7.09-41.27,3-43.6-8.6,9.44-1.76,19-3,28.28-5.42S536.28,534,541.61,524.69ZM501,717.25l-.52-.47c-.61.47-1.21,1-1.83,1.4-13.48,9.67-26.87,19.47-40.53,28.87-2.41,1.66-2.8,3.26-2.8,5.62,0,12.66.1,25.32-.07,38A48.12,48.12,0,0,1,453.84,802c-1.17,4.5-3.88,9-8.56,9.54-7.76.86-15.67.23-23.52.23,1.58-3,3.79-4.76,5.66-6.83a54.75,54.75,0,0,0,5.44-7.13c4.69-7.34,3.14-14.81-4.59-18.46a62.53,62.53,0,0,0-17.93-5.59c-17.27-2.35-33.31.76-45.8,14.07a38.2,38.2,0,0,0-10.64,24.13h21.66c3.08-7.14,5.35-13.92,8.83-20a18.71,18.71,0,0,1,16.47-9.72c4.47-.08,8.73,1,11.2,5.21a10.38,10.38,0,0,1-.5,11.78,41.51,41.51,0,0,1-8.9,9.13c-4.68,3.42-10.13,5.77-14.88,9.11-3,2.13-5.38,5.23-8,7.89l1.24,1.59a30.78,30.78,0,0,0,4.26-1.77c6.51-3.88,13.52-5.24,21.05-5,11,.41,22,.76,33,.57,10.29-.18,19.09-3.91,23.24-14.09a59,59,0,0,0,3.42-15c2.61-21.27,9.78-40.65,22.93-57.71C493,728.48,497,722.82,501,717.25Zm-43.19-34.4c-28.55,9.38-55.84,5.62-82.69-4.57-3.89,12.13,1.93,27.35,13.48,34.14,17.46,10.27,35.5,10.49,53.16.84C453.23,707,458.47,696.62,457.84,682.85Zm53,1.94c-1,.8-2,1.57-3,2.4-10.44,9-20.45,18.59-31.39,26.95-29.26,22.35-61.18,26.44-94,9.4-13.23-6.86-24.44-17.62-36.54-26.64-6.54-4.88-13-9.83-19.54-14.75,9,12.31,18.21,24,28,35.25,11.73,13.47,25.71,23.69,43.89,26.58,28.11,4.47,54-1.77,77.29-17.77A100.15,100.15,0,0,0,510.83,684.79ZM443,202.29c-14.22-1.79-16.27.75-14.89,15.33a16.1,16.1,0,0,0,.77,2.87c1.53,5.27,3.33,10.48,4.5,15.82.81,3.68.74,7.55,1.07,11.34l-.84,0-15.54-33,4.61-12.68c-7.24,0-13.38.28-19.49-.09-5.11-.31-5.36,3.81-6.6,6.71-.72,1.68,0,4,.14,6-1.72,7.22-8.16,13.16-6.78,21.13,4.15.58,7.88.5,11.16,1.69,4.85,1.75,5.44,6.22,1.71,9.22-5.64,4.55-17.39,1.69-19.37-5.2-1.24-4.34-2-9.34-1.1-13.67,1.75-8.67,4.75-17.09,7.57-26.77-3.51.76-7.49.91-10.76,2.51-4.65,2.27-4.46,8,.08,10.76-.55,1.65-1.15,3.35-1.69,5.07-3.11,10-3.6,19.95.26,29.82,2.62,6.71,8.07,10.54,14.32,10.46,7.61-.09,13.2-3.76,15.45-11.06,1.3-4.23,1.52-8.8,2.17-13.23.46-3.14-1.06-5-4-6s-5.54-2-8.33-3c3.8-8.41,5.55-9.18,10.9-2.76,7.2,8.63,13.44,18.07,19.93,27.29,3,4.21,5.52,8.7,8.26,13.06l1.32-.49a58.07,58.07,0,0,0,.56-6.26c-.1-7-.46-14-.53-21C437.8,224.76,435.87,213.11,443,202.29ZM423.28,1018l1.46-.05c0-1.64,0-3.27,0-4.91.08-36.81,1.66-73.54,6.42-110.06,1.34-10.29,1-21.1,7.27-30.55H407.78c6.35,5.07,6.21,11.85,7.22,18,6.39,39,8.23,78.4,8.28,117.88Q423.28,1013.13,423.28,1018ZM656,399.75l-1-1.18a51.77,51.77,0,0,0-5.14,1.11c-4.75,1.52-9.1,2.43-12.85-2.47-1.92-2.5-5-2-6.87.58-3.62,4.92-7.64,9.72-10.26,15.16-6.67,13.81-8.84,28.8-10,44-.23,3-.35,6-.57,9.72,1.68-.81,2.43-1.09,3.1-1.51,8-5.06,11.53-13.15,14-21.68,4.19-14.23,8.84-27.9,23.25-35.59C652.4,406.37,653.89,402.51,656,399.75ZM458.56,652.23c-11.21,8-23.85,9.25-36.56,9-12.5-.29-25-1.68-37.45-2.59,1.83,3,3.69,5.67,5.17,8.55a20.73,20.73,0,0,0,10.71,9.93c15.09,6.53,40.34,1.64,51.67-10.3C455.78,662.9,458.9,658.63,458.56,652.23Zm130.81,21.5.68-1.59c-10.25-4.82-16.37-13.35-19.57-23.49-3.12-9.9-4.62-20.32-6.79-30.34-1.75,3.29-3.23,7-5.52,10.2-5.75,7.93-12,15.49-17.77,23.42-2.51,3.46-4.24,7.49-6.33,11.26a37.25,37.25,0,0,1,25.72.76c5.42,2.12,10.75,4.53,16.26,6.39C580.38,671.82,584.92,672.63,589.37,673.73ZM238.87,564.61c5.36,18.25,2.31,35.63,3.73,52.78a110.73,110.73,0,0,0,2.48,17.75c1.3,5.18,3.51,10.3,9.92,13.36.71-7.35,1.6-14,1.94-20.76.8-15.53.65-31-4.84-45.87A33.56,33.56,0,0,0,238.87,564.61Zm358.49,81.52c10.72-14.89,10.05-67.24,6.7-81.57-2.15,1.87-4.62,3.61-6.51,5.82-1.26,1.47-2.63,3.78-2.37,5.48,1.75,11.64-1,22.79-2.72,34.12a103.08,103.08,0,0,0-1.22,23.2C591.54,637.29,594.9,641.17,597.36,646.13ZM583.91,553a36.68,36.68,0,0,0-2.16,5.78c-1.32,6.69-2.16,13.48-3.67,20.12-1.32,5.79-2.38,11.95-5.22,17a28,28,0,0,0-3.64,17.65c.59,5.12,1,10.33,2.36,15.26a94.57,94.57,0,0,0,6.31,16.68c1.67,3.39,4.73,6,9.58,4.08A314.17,314.17,0,0,1,583.91,553ZM284.49,631.67l1.69-1.42c-15.31-24.31-19.74-52.82-30.84-78.8a8.69,8.69,0,0,0,.17,3.45c2.95,14.66,6.2,29.27,8.77,44s3,29.48-.75,44.1c-1,3.77-2.35,7.43-3.57,11.21,6.27.7,10.53-1.71,12.4-7.7,1.43-4.57,2-9.41,2.86-14.16.48-2.69.76-5.41,1.25-9ZM189.82,406.09c10.87,7,10.87,7,11.93,10.72l-6.13,1.68c9.9,7.2,14.7,16.86,20.08,26.21a173.36,173.36,0,0,0,13.72,20c1.91,2.44,5.37,3.67,8.13,5.45.63-1.52.61-2,.41-2.41C228,448.26,218.13,428.7,208,409.25c-2.34-4.51-10.47-7.18-15.28-5.44C191.81,404.15,191.07,405.1,189.82,406.09ZM409.58,198.66c3.93-8.44,11-12.24,18.92-14.83,7-2.27,14.11-4.09,20.82-6.94,4.35-1.85,8.06-5.18,12.06-7.85-6.57.7-12.41,2.34-18.34,3.53-6.68,1.34-13.52,2-20.16,3.47-6.08,1.39-11.25,4.16-11.46,11.7,0,1.53-1.11,3-2,5.4-4.21-14-13-21.15-23.54-20-6.52.69-10.54,4.34-10.84,9.85C393.48,182.23,396.7,183.66,409.58,198.66ZM386.26,847.84c2.3-.82,4.63-1.56,6.89-2.46,11-4.4,21.95-1.86,32.91.29,13.84,2.73,25.27-1.35,34.07-12.43a21.55,21.55,0,0,0,2-4l-.8-.91c-8.89,7.52-19,9.08-29.62,5.82-12.64-3.86-24.64-2-36.43,3C390.76,839.09,387.42,842.35,386.26,847.84ZM288,635.33l-2,.8c1.8,12.49-4.3,21.09-13.08,28.54-3,2.59-5.54,5.83-8.29,8.77,14.45-8.64,30.81-6.3,46.72-9.15ZM622.83,469.85c-2.68,1.76-5.66,4.28-9.09,5.82-2.92,1.3-2.55,3-2.54,5.46,0,7.42.23,15-.92,22.24s-4.14,14-5.74,21.15c-1.19,5.29-1.44,10.8-2.11,16.2l1.66.35c4.62-13.34,9.22-26.7,19.85-36.7C616.7,492.35,626.48,479.68,622.83,469.85ZM225.44,475c-4.92,26.57,6.85,47.76,20.26,68.5a95.8,95.8,0,0,0-3.08-15c-4-13.53-8.58-26.92-7.84-41.37C235.11,480.66,232.72,477.67,225.44,475ZM565.83,323h9c9.51,0,9.66.06,12.93-8.69,1.62-4.34,2.55-8.92,3.76-13.27l-9.59-3.3-2.46,7.06-5.36-6.57C571.51,306.92,565.08,313.36,565.83,323Zm38.52,2.77c-1.39-2.31-2.44-4.15-3.59-5.94-1.71-2.67-3.33-3.59-5.42-.14-2,3.24-4.46,6.15-6.49,9.36-2.61,4.12-3.26,8.52-1.27,13.12,15.43-2.44,26.53-8.48,21.28-18.63ZM397.83,166.27c-.39,9.66,4.91,12.6,11.16,12.72,6.57.12,12.49-7.4,12.56-15.53.06-6.63-4.9-11.48-11.79-11.52S397.81,157.91,397.83,166.27Zm-.66,697.2c5.07-1,9.88-2.53,14.71-2.61s9.83,1.45,14.77,2a31.64,31.64,0,0,0,7.95-.07c7.39-1.06,14.2-6.33,15.64-12.36-7.78,6.44-15.93,4.68-24.49,3.4-5.85-.87-12.17.33-18.11,1.5C403.22,856.21,398.86,858.25,397.16,863.46ZM446,324c.43,1.94.58,3.94,1.37,5.64.53,1.14,2,1.84,3,2.74.79-1.08,2.34-2.26,2.22-3.23-.33-2.74-.57-6.86-2.27-7.76-3-1.62-7.21-1.87-10.72-1.38-.88.12-1.42,5.21-1.45,8,0,1.86,1,3.78,1.8,5.58,1.41,3.31,3.64,4.85,7.49,3.72,1.78-.52,3.83-.09,6.51-.09l-9,7.07c11.16,1.23,17.06-2.51,16.64-9.53A20.22,20.22,0,0,1,445,332C440.9,329.21,441.24,326.47,446,324ZM258.89,293.22l-1.65,0c1.33,8.61-6.35,2.44-8.62,6.07,3.4,7.6,4,17.37,14.52,20.05,1.24-4.63,2.05-8.86,3.52-12.86,3.15-8.54,3.29-8.49,1.09-11.67-2.39,2.8,0,8.31-5.19,9.6Zm341.66,100c5.33-2.7,10.16-5.12,14.93-7.63a2.38,2.38,0,0,0,.82-1.72c.26-3.31.52-6.63.57-9.94,0-2.45-1.05-3.61-3.81-3C604,373,598,382.74,600.55,393.21Zm-400.32,59c-.94-5.35-1.82-10.71-2.84-16-.9-4.71-1.7-9.46-3-14.05a8.39,8.39,0,0,0-7.09-6.38C187.62,429.82,188.85,442.89,200.24,452.24Zm453.61-38.47c-1,4.3-1.92,8.32-3,12.28-1,3.69-2.57,7.25-3.3,11s-.73,7.76,3.26,10.88c2.61-6.89,5.23-13.19,7.39-19.63C660.6,421.1,659.25,417.12,653.85,413.77Zm-39.55-73.33c-8.26,2.75-14.1,9.61-14.65,16.88-.34,4.5.79,5.46,5.09,4.36C613.16,359.53,617.09,351,614.29,340.44ZM316.73,541.06c-11.26-5.6-18.71-17.07-31.41-20.47C294.21,529.85,303,539.29,316.73,541.06ZM235.38,306.6c-.68,10,2.14,16.13,8.26,18.38A12.47,12.47,0,0,0,235.38,306.6ZM616.08,289c-4.33,9.88-3.15,19.07,2.22,21,.87-4.49,1.79-9,2.63-13.55C621.62,292.71,620.58,289.94,616.08,289Zm-13.35,113.2-5.58,21.87c6-.85,8-4.55,9.34-8.65C608,411,607.61,406.75,602.72,402.22Zm38.72,57.08L627,489.21C637.33,481.85,641.61,471.58,641.45,459.31ZM473.52,645.56l10.6,13.88,1.52-.09c.36-3.78,2.33-8.63.7-11.09C484,644.76,478.8,644.27,473.52,645.56ZM217.64,345.16c-.12.09-.33.17-.35.28-.59,3.24-1.24,6.47-1.73,9.72-.74,4.93,2.19,7.25,7.38,5.92C223.87,349.4,223.15,347.25,217.64,345.16ZM482,333.1c10.44,2.82,17.82,1.52,20.22-3.35C496.75,326.35,489.11,327.52,482,333.1Zm148.18,1.42c.94-6.19,1.84-11.34,2.4-16.53a4.13,4.13,0,0,0-1.8-3.08c-.45-.3-2.14.63-2.82,1.4C624.6,320.17,625.34,329.59,630.23,334.52Zm-417.66,34c1.64,10.22,4.78,14.37,11,14.92C225.08,377.66,220.66,371.49,212.57,368.5Zm4.34-50c-1.27,4.74.51,10.56,3.9,12.44,1.05.58,2.75,1,3.68.51.74-.37,1.14-2.23,1-3.35C224.91,322.95,222,319.76,216.92,318.5ZM600,435c-6.14,12.81-6.14,12.81-3.45,16.67C603.24,446.6,605,438.76,600,435Zm-384.9,50.29c-1.88-9.55-6.66-18.63-10.88-21C206.28,474.44,209.27,480.41,215.07,485.29Zm10.71-170.62c5.85-.54,9.13-4.59,8-9.35-.28-1.15-1.67-2.73-2.66-2.83a4,4,0,0,0-3.24,2.17A92.56,92.56,0,0,0,225.78,314.67ZM398.4,331.86c1.57,3.27,2.75,5.78,4,8.27.4.81.86,2.11,1.43,2.18a2.79,2.79,0,0,0,2.38-1.26c.6-2.29,1.68-6.37,1-6.74C404.35,332.82,400.93,332.47,398.4,331.86Zm165.43-25.78c4.86-2.85,6.59-6.89,4.65-9.9-.74-1.15-2.58-1.59-3.92-2.35-.5,1.1-1.41,2.19-1.42,3.29C563.13,299.87,563.53,302.61,563.83,306.08Zm49.3,54.53,1.54.68c6.33-4.4,8.36-10.68,5-15.32ZM219.3,396.09c.15,5.89,3.55,8.5,8,10.53C228.41,400.94,226.28,398.07,219.3,396.09Zm-17.83-94c4.84-3.42,4.91-10.09,0-15.48Zm-.41,41.06,4.49,14.23C209,350.22,206.9,344.08,201.06,343.18Zm405.42,80.44c5.62.22,7.4-1.93,7-7.94C608.58,415.37,607.51,416.53,606.48,423.62ZM353,651.7c6.7,1,8.94-.48,9.48-6.33C357.36,644.16,354.94,647,353,651.7ZM621.67,378.3h-1.79v9.16l1.61,0C623.84,384.53,623.93,381.47,621.67,378.3ZM192.84,348.76c-3.5,5.06-3.19,6.58,1.43,9.77Zm435.44-50-2.7-1.84-4.68,7.88,1.89,1.27Z" transform="translate(-58.04 -36.04)"/><path d="M416.14,339.94c3.69-6.82,1.88-14.5-4.93-20.9-4.66-4.39-14.22-5.81-19-1.87-2.73,2.25-4.47,6.05-5.85,9.48a132.38,132.38,0,0,0-4.46,14.73c-1.35,5,2.31,7.71,5.44,10.26,10.27,8.37,33.2,5.7,37.83-9a6.76,6.76,0,0,1,1.12-1.62c13.13,12.92,41,7.79,44.84-9,6.69,4,13.53,6.63,21.57,5.6,8.74-1.12,13.08-6.23,15-15.53,2.94,2.46,5.57,4,7.25,6.2,7,9.34,21.14,7.3,24.45-5.19,4-15.23,2.1-29.75-10.41-41.26a5.23,5.23,0,0,1-1.26-4.21c2.45-11.36.47-17.41-8.76-25.21,3.78-3.52,5.52-9.56,12.87-9.57a64.75,64.75,0,0,0-2.41,7.31c-.22,1.06.54,2.33.86,3.5,1.1-.51,2.49-.76,3.22-1.59a40.8,40.8,0,0,0,3.39-5.19c3.64,2.51,1.11,4.44,0,6.55s-2.08,4.48-3.35,7.26c6.05.5,6.18-3.24,6.81-6.35.77-3.77,2-6.74,7.64-4.86L540.24,263c6.24-.42,7.2-4.6,8.94-9.72,3,10.76,2.53,20,.36,29.29-1.83,7.85,1.65,12.67,10.16,13.11-.07,1.23-.05,2.47-.23,3.68-.49,3.21-.49,6.66-1.8,9.51-.95,2.06-3.5,3.6-5.65,4.84-1.65,1-3.78,1.08-6.51,1.78,3,11.43-3.8,19.7-9,28.85-2.91,5.08-3.78,11.46-4.88,17.38-.47,2.54-.67,4.1-3.41,5.09-5.92,2.14-8.54,7.61-11.42,12.64a4,4,0,0,0,.23,3.25,21.88,21.88,0,0,0,3.35,4.91c7.37,7.94,7.14,7.78,2.23,17.59-3.7,7.38-7.68,14.89-9.61,22.81-2.49,10.2.47,12.83,11.05,12.81h9.27l.7,1.58c-2.1,1.49-4,3.73-6.35,4.31a44.38,44.38,0,0,1-12.34,1.23c-22.07-.91-41,6.91-58.22,20.07-9.51,7.27-19.22,14.28-28.69,21.6a8.1,8.1,0,0,0-2.67,4.85c-5.55,38.94-6.77,77.92-.54,116.92,1,6.06-.78,9.15-7,12.54-8.07,4.38-10.77,3.65-11.73-5.38a346.19,346.19,0,0,1-1.66-38.31c.08-16.12,2-32.27,1.38-48.35-1.13-30.24-15.79-52.25-44.07-63.73-18.94-7.69-38.5-13.86-57.76-20.8-5.08-1.83-10-3.95-15.07-5.94l.06-1.66a61.33,61.33,0,0,1,7.27-.67c4.15.09,8.3.86,12.43.72,7.33-.26,11.21-7.13,7.37-13.44-1.92-3.15-5-5.77-8-8.09-11.35-8.83-13.36-13.57-7.61-26.76,2.53-5.8,1.55-9.56-1.3-14.38-5.82-9.84-10.15-20.68-20.12-27.51a3.9,3.9,0,0,1-1.06-3.4c1.56-6-1.61-9.78-5.5-13.51-2.33-2.23-4.32-4.82-6.46-7.24l1.23-1.62c2,1.24,4.11,2.43,6.1,3.74,3.84,2.53,7.44,5.55,11.55,7.53,1.89.91,4.74-.17,7.16-.34l.28-2.26-11.12-4c1.41-5.58,10-9.05,5.89-16.85l-9.9,3.93c0-2.87,0-4.65,0-6.43-.22-8.8.55-9.37,8.94-6.83,1.13.34,3.19.54,3.52,0a6.21,6.21,0,0,0,.58-4.16c-.38-1.88-1.34-3.64-2.67-7,3.43,1,5.52,1.56,7.51,2.34,1.37.54,2.53,1.73,3.93,2.07,1.09.27,2.39-.3,3.6-.49-.34-1.34-.25-3.31-1.11-3.91-2.57-1.79-5.53-3-8.29-4.53-1.24-.69-2.36-1.63-5.13-3.57,17.94-.46,22.11-11.31,22.11-25.54l1.56-.2c2,2.66,4.79,5,5.77,8,2.22,6.76,3.53,13.82,5.23,20.75,1,4.19,1.76,8.49,3.2,12.54,3.27,9.18,10.47,11.64,19.77,6.85-2.41-3.53-6-2.47-9.29-2.9-2.35-.31-5.75-.72-6.65-2.27-1.79-3.06-.45-6.41,2.44-8.83,1.27-1.06,2.46-2.22,3.66-3.37,2-1.9,2.73-3.62-.07-5.67-1-.73-1.19-2.55-1.75-3.88,1.77-.23,3.79-1.1,5.26-.53,2,.78,3.65,2.64,6.75,5l-3.31-11.5c9,3,5.51,12,11.38,16.08l-.62-13h7.58c-.29,8-.68,16.17-.83,24.33-.05,3-.52,4.63-3.92,5.72-10,3.22-13.55,11.83-13.71,21.11-.12,7.41-3.4,10.7-9.66,12a74.33,74.33,0,0,1-15.22,1.66c-2,0-4.07-2.29-6.11-3.53,1.85-1.66,3.51-3.65,5.62-4.89s4.48-1.61,6.75-2.36l.12-1.77-9-3.11c.29-7.1,5.94-8.24,11-9.77.41-9-6.17-11.32-12.88-9.52a19.46,19.46,0,0,0-14.81,19c-.05,8.14,4.75,15,14.29,16.66,10.88,1.85,22.11,1.73,33.19,2.43,1,.06,2-.09,4-.19-5.12,4-1.95,5.87.93,7.43,7.72,4.2,15.75,5.26,23.78,1,1.31-.7,1.9-2.76,2.82-4.19-1.46-.55-2.91-1.15-4.39-1.63s-2.79-.75-4.5-1.21L361.4,347l-1.13-1.35,4.87-9.91-.12.14c3.29-3.43,7.05-6.54,9.75-10.39,2.45-3.5-.64-6.17-3.5-7.42-4-1.76-8.46-2.67-12.72-3.94,1.51-7,5.5-9.19,17.86-9.44a46.94,46.94,0,0,0-2.38-4.81c-.71-1.1-2.12-1.82-2.63-3-1.42-3.2-2.53-6.54-3.77-9.82,3.67-1.32,7.25-3.22,11-3.8,3.32-.51,5,2,4.51,6.48l-10.09-2.48c-1.24,3.59.74,5.71,3.48,7.14,3,1.56,7.64-1.49,11.39-7.5,4.14,5.54-2.08,10.56-.5,15.59,8.73-.45,13.18-8.24,12.22-21.1,5.79.56,7,3.21,8.57,19.64,4.17-7.51.65-17.68,10.13-23.53-.71,4.55-1.83,8.18-1.69,11.76a59.82,59.82,0,0,0,2.3,13.47c.28,1,3,1.34,4.61,2-.06-1.72.3-3.6-.28-5.12-1-2.75-3-5.17-3.85-8-.41-1.34.81-3.19,1.29-4.81h1.68c.54,2.59,1,5.2,1.65,7.75a53,53,0,0,0,2,5.25c2.18-.89,4.57-1.46,6.47-2.76,2.11-1.44,3.65-3.7,5.69-5.28.69-.54,2.15-.08,3.59-.08L438,304.06c6.18-1.58,8.66-5.41,8.36-12.51-.21-5.07-1-10.11-.83-15.77l3.85,5.41c1.4-4.64,2.5-9.23,4.16-13.6,2.18-5.77,8.53-10.13,16.71-4.14-2.15.18-3.73,0-5.14.48-2.65.83-5.57,1.53-7.65,3.19-1.37,1.09-1.56,3.75-2,5.76-.08.32,1.44,1.47,1.65,1.34a33.72,33.72,0,0,0,4.54-3.44c.59-.53.66-1.8,1.27-2.09,2.36-1.11,5.07-3,7.21-2.55,1.47.32,2.54,4,3.13,6.27.36,1.41-.55,3.13-.3,5.14a31.8,31.8,0,0,1,3.3-4c1.82-1.61,3.92-4.19,5.85-4.14,5.6.13,6.47-3.68,7.71-7.48.77-2.37,1.2-4.86,2.16-7.14,1.41-3.33,3.8-5.34,8.66-4.29a54.1,54.1,0,0,0-4.15,5.22,37.54,37.54,0,0,0-2.23,5.2l1.56,1.13,10.17-7.83,1.53,1.5-4.13,7.55,10.14-2.92c-1.34,13.54,5.94,26.31-1.44,39.53l8.64-3-2.25,10.83c3.9-2,6.34-3.28,8.8-4.52,3.24-1.63,5.34-.67,6.62,2.72,2.93,7.77-2.49,14.09-12.29,14.71l7.05,2.43c-1.75,4.94-3.81,5.82-7.8,3.13-4.15-2.79-7-7.81-13.07-7.27-.36,0-.92-.89-1.19-1.46q-8.73-18.75-17.41-37.51c-.33-.71-.69-1.41-1.45-3l-16.46,30.85c6-3,9.3-11,17.89-7.46l-6.42,7.06,15.12,2.52c-.79,7.34-7.65,6.27-10.77,10.16a6.65,6.65,0,0,1,1.9,1.22c.9,1.23,1.6,2.61,2.38,3.93-1.84.35-4.22,1.62-5.44.91-5.49-3.23-8-8.15-6.28-15-4.82,4.66-9.14,7.88-1.08,18.41a24,24,0,0,1-4.93-1.28c-5.7-2.84-6-2.8-8.34,3.33-3.57-1.82-3-5-3.11-8.13-.08-2.38.53-5.74-4.76-5.61l3.69,9.08c-7-3-11.39-9.33-9.52-13.12-7-5.93-17.27-3.92-20.84,7.44l.17-.17c-1.92,4-3.79,7.94-5.77,11.87-2.44,4.87-4.57,10-7.61,14.44-1.8,2.66-5.09,4.32-7.71,6.42l-1.88-.94,1.31-10.44c4.82,3.23,5.45-.62,7-2.7Z" transform="translate(-58.04 -36.04)"/><path d="M541.61,524.69C536.28,534,526.86,537,517.47,539.4s-18.84,3.66-28.28,5.42c2.32,11.62,22.25,15.69,43.6,8.6A30.74,30.74,0,0,1,525.68,577c-5.74,7.11-13.79,9.12-22.33,10.31l.09,1.57,12.61.58c-.94,2.27-1.54,3.71-2.14,5.15-3.64,8.86-7.19,17.76-11,26.54a6.06,6.06,0,0,1-3.47,2.89c-10.43,3.18-20.93,6.16-31.3,9.17l2.18,1.92c-5.91,6.9-13.66,10.54-21.93,13.26-10.58,3.49-21.18,6.95-31.85,10.16a10.43,10.43,0,0,1-6.22-.28q-36.94-13.79-73.74-27.94a7.34,7.34,0,0,1-3.54-3.6c-2.53-5.58-4.47-11.43-7.14-16.94-3.73-7.69-6.53-15.16.66-22.81-6-2.59-11.56-4.7-16.87-7.34-15-7.45-22.54-20.32-20.61-35.34,3.68,1,7.25,2.25,10.91,2.93q9.77,1.83,19.65,3.07c2.94.37,5.15-.54,4.88-4.43-.19-2.79,1.37-4.25,4.5-4.76,1.7-.28,3.46-2.43,4.48-4.16,1.24-2.11,1.2-5.07,2.64-6.94,3.92-5,1.61-8.62-2.31-11.7-8-6.26-16.07-12.35-24.22-18.39-9.05-6.71-17.22-14.08-20.86-25.41.57-.31,1-.75,1.36-.72,24.19,2.14,46.86,8.51,65.71,24.66,16.17,13.85,23.75,32.09,25.72,52.92,1.37,14.46,0,28.51-6,42-3.22,7.18-2.22,14.3,2.34,20.84,7,10,15.49,18.18,26.29,24,10.15,5.45,20.05,3.23,29-2.05,16.54-9.74,26-24.22,24.7-44-.35-5.24-2-11.37-5.19-15.26-13.82-16.68-9.47-33.17-1.63-50.41,13.91-30.61,39.25-44.33,70.87-49.15,6.88-1,13.81-1.71,22-2.7C541,480,538,484.25,536.5,489c-2.21,6.89-6.84,8.91-13.38,10.32a189,189,0,0,0-29.54,8.86c-8.32,3.29-13.84,10-16.61,18.8-1.29,4.09.12,6.18,3.69,7.81,8.15,3.72,16.69,4.42,25.41,3.46C519.05,536.79,531,532.57,541.61,524.69Z" transform="translate(-58.04 -36.04)"/><path d="M501,717.25c-4.06,5.57-8,11.23-12.21,16.69-13.15,17.07-20.32,36.44-22.93,57.71a59,59,0,0,1-3.42,15c-4.15,10.18-13,13.91-23.24,14.09-11,.19-22-.17-33-.57-7.54-.28-14.54,1.08-21.05,5a30.78,30.78,0,0,1-4.26,1.77l-1.24-1.59c2.66-2.66,5-5.76,8-7.89,4.75-3.34,10.2-5.69,14.88-9.11a41.51,41.51,0,0,0,8.9-9.13,10.38,10.38,0,0,0,.5-11.78c-2.47-4.18-6.73-5.29-11.2-5.21a18.71,18.71,0,0,0-16.47,9.72c-3.48,6.09-5.75,12.87-8.83,20H353.88a38.2,38.2,0,0,1,10.64-24.13c12.49-13.32,28.53-16.43,45.8-14.07a62.53,62.53,0,0,1,17.93,5.59c7.73,3.66,9.27,11.12,4.59,18.46a54.75,54.75,0,0,1-5.44,7.13c-1.87,2.07-4.08,3.83-5.66,6.83,7.85,0,15.77.62,23.52-.23,4.67-.52,7.39-5,8.56-9.54a48.12,48.12,0,0,0,1.44-11.33c.18-12.66.09-25.31.07-38,0-2.37.39-4,2.8-5.62,13.67-9.4,27.05-19.2,40.53-28.87.62-.45,1.22-.93,1.83-1.4Z" transform="translate(-58.04 -36.04)"/><path d="M457.84,682.85c.63,13.76-4.61,24.15-16.06,30.41-17.66,9.65-35.7,9.43-53.16-.84-11.55-6.79-17.37-22-13.48-34.14C402,688.48,429.28,692.23,457.84,682.85Z" transform="translate(-58.04 -36.04)"/><path d="M510.83,684.79a100.15,100.15,0,0,1-35.27,41.42c-23.32,16-49.18,22.24-77.29,17.77-18.18-2.89-32.16-13.1-43.89-26.58-9.78-11.24-19-22.94-28-35.25,6.51,4.92,13,9.87,19.54,14.75,12.1,9,23.32,19.78,36.54,26.64,32.84,17,64.76,12.95,94-9.4,10.94-8.36,20.95-17.93,31.39-26.95C508.84,686.36,509.85,685.59,510.83,684.79Z" transform="translate(-58.04 -36.04)"/><path d="M443,202.29c-7.14,10.82-5.21,22.47-5.11,33.86.07,7,.42,14,.53,21a58.07,58.07,0,0,1-.56,6.26l-1.32.49c-2.74-4.36-5.3-8.85-8.26-13.06-6.49-9.21-12.73-18.65-19.93-27.29-5.36-6.42-7.11-5.66-10.9,2.76,2.79,1,5.56,2,8.33,3s4.42,2.91,4,6c-.64,4.43-.86,9-2.17,13.23-2.25,7.31-7.84,11-15.45,11.06-6.25.08-11.69-3.75-14.32-10.46-3.86-9.87-3.37-19.85-.26-29.82.54-1.72,1.14-3.42,1.69-5.07-4.53-2.79-4.73-8.49-.08-10.76,3.27-1.6,7.25-1.75,10.76-2.51-2.82,9.68-5.83,18.1-7.57,26.77-.87,4.33-.14,9.33,1.1,13.67,2,6.89,13.73,9.75,19.37,5.2,3.73-3,3.14-7.47-1.71-9.22-3.28-1.19-7-1.11-11.16-1.69-1.37-8,5.06-13.91,6.78-21.13-.1-2-.86-4.34-.14-6,1.24-2.9,1.49-7,6.6-6.71,6.1.37,12.25.09,19.49.09l-4.61,12.68,15.54,33,.84,0c-.33-3.79-.26-7.66-1.07-11.34-1.17-5.35-3-10.55-4.5-15.82a16.1,16.1,0,0,1-.77-2.87C426.74,203,428.79,200.5,443,202.29Z" transform="translate(-58.04 -36.04)"/><path d="M423.28,1018q0-4.82,0-9.65c0-39.48-1.88-78.85-8.28-117.88-1-6.2-.87-13-7.22-18h30.65c-6.24,9.45-5.93,20.26-7.27,30.55-4.76,36.52-6.34,73.25-6.42,110.06,0,1.64,0,3.27,0,4.91Z" transform="translate(-58.04 -36.04)"/><path d="M656,399.75c-2.08,2.76-3.57,6.63-6.33,8.1-14.41,7.7-19.06,21.36-23.25,35.59-2.51,8.53-6,16.61-14,21.68-.66.42-1.42.7-3.1,1.51.21-3.71.34-6.72.57-9.72,1.15-15.15,3.32-30.14,10-44,2.63-5.44,6.65-10.24,10.26-15.16,1.87-2.54,5-3.08,6.87-.58,3.76,4.9,8.1,4,12.85,2.47a51.77,51.77,0,0,1,5.14-1.11Z" transform="translate(-58.04 -36.04)"/><path d="M458.56,652.23c.34,6.4-2.78,10.66-6.46,14.55-11.33,11.94-36.58,16.83-51.67,10.3a20.73,20.73,0,0,1-10.71-9.93c-1.47-2.88-3.34-5.55-5.17-8.55,12.46.91,24.94,2.3,37.45,2.59C434.71,661.48,447.35,660.26,458.56,652.23Z" transform="translate(-58.04 -36.04)"/><path d="M589.37,673.73c-4.45-1.1-9-1.92-13.32-3.38-5.51-1.86-10.84-4.26-16.26-6.39a37.25,37.25,0,0,0-25.72-.76c2.09-3.77,3.82-7.8,6.33-11.26,5.75-7.94,12-15.49,17.77-23.42,2.29-3.16,3.77-6.92,5.52-10.2,2.17,10,3.67,20.43,6.79,30.34,3.19,10.14,9.32,18.67,19.57,23.49Z" transform="translate(-58.04 -36.04)"/><path d="M238.87,564.61a33.56,33.56,0,0,1,13.24,17.25c5.49,14.87,5.64,30.34,4.84,45.87-.35,6.72-1.24,13.42-1.94,20.76-6.4-3.05-8.62-8.18-9.92-13.36a110.73,110.73,0,0,1-2.48-17.75C241.18,600.24,244.24,582.86,238.87,564.61Z" transform="translate(-58.04 -36.04)"/><path d="M597.36,646.13c-2.46-5-5.82-8.84-6.13-12.95a103.08,103.08,0,0,1,1.22-23.2c1.75-11.33,4.48-22.49,2.72-34.12-.26-1.7,1.11-4,2.37-5.48,1.9-2.22,4.36-4,6.51-5.82C607.41,578.9,608.08,631.24,597.36,646.13Z" transform="translate(-58.04 -36.04)"/><path d="M583.91,553a314.17,314.17,0,0,0,3.56,96.58c-4.84,1.88-7.91-.69-9.58-4.08a94.57,94.57,0,0,1-6.31-16.68c-1.35-4.93-1.77-10.15-2.36-15.26a28,28,0,0,1,3.64-17.65c2.84-5.06,3.91-11.21,5.22-17,1.51-6.64,2.35-13.43,3.67-20.12A36.68,36.68,0,0,1,583.91,553Z" transform="translate(-58.04 -36.04)"/><path d="M284.49,631.67l-8-8.34c-.49,3.62-.76,6.34-1.25,9-.85,4.74-1.43,9.58-2.86,14.16-1.87,6-6.13,8.4-12.4,7.7,1.21-3.77,2.59-7.44,3.57-11.21,3.78-14.63,3.31-29.42.75-44.1s-5.82-29.33-8.77-44a8.69,8.69,0,0,1-.17-3.45c11.1,26,15.52,54.49,30.84,78.8Z" transform="translate(-58.04 -36.04)"/><path d="M189.82,406.09c1.25-1,2-1.94,2.94-2.28,4.81-1.73,12.94.94,15.28,5.44,10.09,19.45,20,39,29.92,58.53.2.4.22.89-.41,2.41-2.76-1.78-6.22-3-8.13-5.45a173.36,173.36,0,0,1-13.72-20c-5.38-9.35-10.17-19-20.08-26.21l6.13-1.68C200.7,413.13,200.7,413.13,189.82,406.09Z" transform="translate(-58.04 -36.04)"/><path d="M409.58,198.66c-12.88-15-16.1-16.43-34.59-15.73.3-5.51,4.32-9.16,10.84-9.85,10.49-1.11,19.33,6.08,23.54,20,.93-2.37,2-3.87,2-5.4.22-7.53,5.39-10.31,11.46-11.7,6.64-1.51,13.47-2.13,20.16-3.47,5.93-1.19,11.77-2.82,18.34-3.53-4,2.67-7.71,6-12.06,7.85-6.71,2.85-13.86,4.67-20.82,6.94C420.55,186.42,413.51,190.22,409.58,198.66Z" transform="translate(-58.04 -36.04)"/><path d="M386.26,847.84c1.15-5.49,4.5-8.75,9-10.67,11.79-5,23.78-6.88,36.43-3,10.64,3.25,20.73,1.7,29.62-5.82l.8.91a21.55,21.55,0,0,1-2,4c-8.81,11.07-20.24,15.15-34.07,12.43-11-2.16-21.89-4.7-32.91-.29C390.89,846.28,388.56,847,386.26,847.84Z" transform="translate(-58.04 -36.04)"/><path d="M288,635.33l23.36,29c-15.91,2.86-32.27.51-46.72,9.15,2.75-2.94,5.24-6.18,8.29-8.77,8.78-7.46,14.87-16.06,13.08-28.54Z" transform="translate(-58.04 -36.04)"/><path d="M622.83,469.85c3.65,9.83-6.13,22.49,1.12,34.52-10.63,10-15.23,23.36-19.85,36.7l-1.66-.35c.67-5.41.92-10.91,2.11-16.2,1.6-7.12,4.61-14,5.74-21.15s1-14.81.92-22.24c0-2.5-.38-4.16,2.54-5.46C617.17,474.14,620.16,471.62,622.83,469.85Z" transform="translate(-58.04 -36.04)"/><path d="M225.44,475c7.27,2.71,9.66,5.7,9.34,12.1-.73,14.45,3.83,27.84,7.84,41.37a95.8,95.8,0,0,1,3.08,15C232.29,522.72,220.52,501.53,225.44,475Z" transform="translate(-58.04 -36.04)"/><path d="M565.83,323c-.74-9.65,5.68-16.09,8.32-24.76l5.36,6.57,2.46-7.06,9.59,3.3c-1.21,4.34-2.14,8.93-3.76,13.27-3.27,8.75-3.42,8.7-12.93,8.69Z" transform="translate(-58.04 -36.04)"/><path d="M604.34,325.78l4.52-2.23c5.24,10.15-5.85,16.19-21.28,18.63-2-4.6-1.34-9,1.27-13.12,2-3.2,4.53-6.12,6.49-9.36,2.08-3.45,3.71-2.53,5.42.14C601.9,321.62,603,323.47,604.34,325.78Z" transform="translate(-58.04 -36.04)"/><path d="M397.83,166.27c0-8.36,5-14.38,11.93-14.34s11.85,4.89,11.79,11.52c-.07,8.13-6,15.66-12.56,15.53C402.73,178.86,397.44,175.92,397.83,166.27ZM410.06,171c3.84,0,7.37-1.15,7.67-5.42s-3.69-4.51-6.68-5c-5.49-1-10.66,1.34-10.77,4.49C400.17,168.05,405,171,410.06,171Z" transform="translate(-58.04 -36.04)"/><path d="M397.16,863.46c1.7-5.21,6.06-7.25,10.48-8.13,5.93-1.17,12.26-2.37,18.11-1.5,8.56,1.27,16.71,3,24.49-3.4-1.43,6-8.25,11.3-15.64,12.36a31.64,31.64,0,0,1-7.95.07c-4.95-.55-9.86-2.09-14.77-2S402.24,862.5,397.16,863.46Z" transform="translate(-58.04 -36.04)"/><path d="M446,324c-4.72,2.46-5.07,5.19-1,7.94a20.22,20.22,0,0,0,16.59,2.86c.43,7-5.48,10.76-16.64,9.53l9-7.07c-2.68,0-4.74-.43-6.51.09-3.85,1.12-6.08-.41-7.49-3.72-.77-1.81-1.82-3.73-1.8-5.58,0-2.82.57-7.91,1.45-8,3.52-.48,7.68-.24,10.72,1.38,1.7.91,1.94,5,2.27,7.76.12,1-1.43,2.15-2.22,3.23-1-.9-2.51-1.6-3-2.74C446.54,328,446.4,326,446,324Z" transform="translate(-58.04 -36.04)"/><path d="M258.89,293.22l3.65,11.16c5.2-1.29,2.81-6.8,5.19-9.6,2.2,3.18,2.06,3.13-1.09,11.67-1.47,4-2.28,8.23-3.52,12.86-10.56-2.68-11.11-12.46-14.52-20.05,2.28-3.63,10,2.54,8.62-6.07Z" transform="translate(-58.04 -36.04)"/><path d="M600.55,393.21C598,382.74,604,373,613.06,370.94c2.75-.64,3.84.53,3.81,3,0,3.32-.31,6.63-.57,9.94a2.38,2.38,0,0,1-.82,1.72C610.71,388.09,605.88,390.5,600.55,393.21Z" transform="translate(-58.04 -36.04)"/><path d="M200.24,452.24c-11.39-9.35-12.62-22.42-13-36.48a8.39,8.39,0,0,1,7.09,6.38c1.34,4.59,2.14,9.34,3,14.05C198.41,441.53,199.29,446.89,200.24,452.24Z" transform="translate(-58.04 -36.04)"/><path d="M653.85,413.77c5.4,3.35,6.75,7.33,4.35,14.51-2.16,6.45-4.78,12.75-7.39,19.63-4-3.13-4-7.07-3.26-10.88s2.29-7.3,3.3-11C651.93,422.09,652.81,418.07,653.85,413.77Z" transform="translate(-58.04 -36.04)"/><path d="M614.29,340.44c2.8,10.59-1.13,19.09-9.56,21.24-4.3,1.1-5.43.13-5.09-4.36C600.19,350.05,606,343.2,614.29,340.44Z" transform="translate(-58.04 -36.04)"/><path d="M416.3,339.8c-4.75.68-5.35-3-6.24-6.14-2.6-9.12-4.23-10.06-13.65-7.26-1.68.5-3.31,1.15-5.18,1.8,3.22-6.71,12.13-8.28,19.33-3.9,6.19,3.76,6.39,9.48,5.58,15.65Z" transform="translate(-58.04 -36.04)"/><path d="M316.73,541.06c-13.75-1.77-22.52-11.21-31.41-20.47C298,524,305.47,535.46,316.73,541.06Z" transform="translate(-58.04 -36.04)"/><path d="M235.38,306.6A12.47,12.47,0,0,1,243.64,325C237.53,322.74,234.7,316.59,235.38,306.6Z" transform="translate(-58.04 -36.04)"/><path d="M616.08,289c4.5.93,5.54,3.7,4.85,7.47-.84,4.54-1.75,9.06-2.63,13.55C612.93,308.09,611.75,298.9,616.08,289Z" transform="translate(-58.04 -36.04)"/><path d="M602.72,402.22c4.89,4.53,5.23,8.75,3.76,13.22-1.35,4.1-3.33,7.8-9.34,8.65Z" transform="translate(-58.04 -36.04)"/><path d="M641.45,459.31c.16,12.28-4.12,22.55-14.41,29.9Z" transform="translate(-58.04 -36.04)"/><path d="M473.52,645.56c5.28-1.29,10.48-.8,12.81,2.7,1.63,2.46-.34,7.31-.7,11.09l-1.52.09Z" transform="translate(-58.04 -36.04)"/><path d="M217.64,345.16c5.51,2.09,6.23,4.23,5.3,15.93-5.19,1.33-8.12-1-7.38-5.92.49-3.25,1.13-6.49,1.73-9.72C217.31,345.33,217.52,345.26,217.64,345.16Z" transform="translate(-58.04 -36.04)"/><path d="M482,333.1c7.06-5.57,14.7-6.75,20.22-3.35C499.87,334.61,492.49,335.92,482,333.1Z" transform="translate(-58.04 -36.04)"/><path d="M430.77,321.32l5.24-7.66,2.53,2.12c-2.08,4-5.34,7.8-5.92,12s1.57,8.66,2.52,13c-7.71-4.53-9.3-6.88-4.2-19.63Z" transform="translate(-58.04 -36.04)"/><path d="M630.23,334.52c-4.89-4.93-5.63-14.35-2.22-18.21.68-.77,2.37-1.7,2.82-1.4a4.13,4.13,0,0,1,1.8,3.08C632.07,323.18,631.17,328.33,630.23,334.52Z" transform="translate(-58.04 -36.04)"/><path d="M212.57,368.5c8.09,3,12.5,9.16,11,14.92C217.35,382.87,214.21,378.72,212.57,368.5Z" transform="translate(-58.04 -36.04)"/><path d="M216.92,318.5c5.08,1.27,8,4.45,8.59,9.59.13,1.12-.27,3-1,3.35-.92.47-2.62.07-3.68-.51C217.43,329.06,215.65,323.24,216.92,318.5Z" transform="translate(-58.04 -36.04)"/><path d="M600,435c5.06,3.77,3.26,11.6-3.45,16.67C593.83,447.81,593.83,447.81,600,435Z" transform="translate(-58.04 -36.04)"/><path d="M215.07,485.29c-5.79-4.88-8.79-10.85-10.88-21C208.41,466.66,213.19,475.74,215.07,485.29Z" transform="translate(-58.04 -36.04)"/><path d="M225.78,314.67a92.56,92.56,0,0,1,2.06-10,4,4,0,0,1,3.24-2.17c1,.09,2.38,1.67,2.66,2.83C234.9,310.08,231.63,314.13,225.78,314.67Z" transform="translate(-58.04 -36.04)"/><path d="M398.4,331.86c2.53.61,5.95,1,8.77,2.46.71.37-.37,4.45-1,6.74a2.79,2.79,0,0,1-2.38,1.26c-.56-.07-1-1.38-1.43-2.18C401.15,337.64,400,335.12,398.4,331.86Z" transform="translate(-58.04 -36.04)"/><path d="M563.83,306.08c-.3-3.47-.7-6.21-.69-9,0-1.1.92-2.2,1.42-3.29,1.34.76,3.17,1.2,3.92,2.35C570.42,299.19,568.69,303.23,563.83,306.08Z" transform="translate(-58.04 -36.04)"/><path d="M613.13,360.61,619.65,346c3.38,4.64,1.35,10.92-5,15.32Z" transform="translate(-58.04 -36.04)"/><path d="M365.14,335.77l-6.52.82-.39-1.25,4-2.53-6.92-6.33c8-1,10.43,1.6,9.7,9.45Z" transform="translate(-58.04 -36.04)"/><path d="M219.3,396.09c7,2,9.11,4.85,8,10.53C222.85,404.59,219.44,402,219.3,396.09Z" transform="translate(-58.04 -36.04)"/><path d="M201.47,302.12V286.64C206.38,292,206.31,298.69,201.47,302.12Z" transform="translate(-58.04 -36.04)"/><path d="M201.06,343.18c5.84.91,8,7,4.49,14.23Z" transform="translate(-58.04 -36.04)"/><path d="M606.48,423.62c1-7.08,2.09-8.24,7-7.94C613.88,421.69,612.1,423.83,606.48,423.62Z" transform="translate(-58.04 -36.04)"/><path d="M353,651.7c1.91-4.68,4.34-7.54,9.48-6.33C362,651.21,359.73,652.72,353,651.7Z" transform="translate(-58.04 -36.04)"/><path d="M621.67,378.3c2.26,3.17,2.17,6.23-.18,9.19l-1.61,0V378.3Z" transform="translate(-58.04 -36.04)"/><path d="M192.84,348.76l1.43,9.77C189.65,355.33,189.34,353.82,192.84,348.76Z" transform="translate(-58.04 -36.04)"/><path d="M628.28,298.79l-5.49,7.32-1.89-1.27,4.68-7.88Z" transform="translate(-58.04 -36.04)"/><path class="cls-1" d="M410.06,171c-5.09,0-9.89-3-9.78-6,.11-3.15,5.28-5.45,10.77-4.49,3,.52,7,.78,6.68,5S413.9,171,410.06,171Z" transform="translate(-58.04 -36.04)"/></svg>